{
  "accessors": [
    {
      "bufferView": 2,
      "componentType": 5126,
      "count": 2495,
      "max": [
        -0.5865049958229065,
        1.016178011894226,
        17.72535514831543
      ],
      "min": [
        -3.674468994140625,
        -1.016178011894226,
        11.548453330993652
      ],
      "type": "VEC3"
    },
    {
      "bufferView": 2,
      "byteOffset": 29940,
      "componentType": 5126,
      "count": 2495,
      "max": [
        1.0,
        1.0,
        0.9996667504310608
      ],
      "min": [
        -0.9998860955238342,
        -1.0,
        -1.0
      ],
      "type": "VEC3"
    },
    {
      "bufferView": 3,
      "componentType": 5126,
      "count": 2495,
      "max": [
        1.0,
        1.0,
        0.9994329810142517,
        1.0
      ],
      "min": [
        -0.9618096947669983,
        -1.0,
        -0.9954449534416199,
        1.0
      ],
      "type": "VEC4"
    },
    {
      "bufferView": 1,
      "componentType": 5126,
      "count": 2495,
      "max": [
        1.0,
        0.9910399913787842
      ],
      "min": [
        0.0,
        0.0
      ],
      "type": "VEC2"
    },
    {
      "bufferView": 0,
      "componentType": 5125,
      "count": 11436,
      "type": "SCALAR"
    },
    {
      "bufferView": 2,
      "byteOffset": 59880,
      "componentType": 5126,
      "count": 929,
      "max": [
        -4.335661888122559,
        0.508089005947113,
        15.599594116210938
      ],
      "min": [
        -9.890534400939941,
        -0.508089005947113,
        11.831657409667969
      ],
      "type": "VEC3"
    },
    {
      "bufferView": 2,
      "byteOffset": 71028,
      "componentType": 5126,
      "count": 929,
      "max": [
        0.9995251297950745,
        1.0,
        0.9994499087333679
      ],
      "min": [
        -0.9910587668418884,
        -1.0,
        -1.0
      ],
      "type": "VEC3"
    },
    {
      "bufferView": 3,
      "byteOffset": 39920,
      "componentType": 5126,
      "count": 929,
      "max": [
        0.9999783039093018,
        1.0,
        0.9998999834060669,
        1.0
      ],
      "min": [
        -0.9594370722770691,
        -1.0,
        -0.9999706745147705,
        1.0
      ],
      "type": "VEC4"
    },
    {
      "bufferView": 1,
      "byteOffset": 19960,
      "componentType": 5126,
      "count": 929,
      "max": [
        0.9933859705924988,
        1.0
      ],
      "min": [
        0.0,
        0.0
      ],
      "type": "VEC2"
    },
    {
      "bufferView": 0,
      "byteOffset": 45744,
      "componentType": 5125,
      "count": 4416,
      "type": "SCALAR"
    },
    {
      "bufferView": 2,
      "byteOffset": 82176,
      "componentType": 5126,
      "count": 2511,
      "max": [
        3.606441020965576,
        1.016178011894226,
        17.72535514831543
      ],
      "min": [
        0.5575159788131714,
        -1.016178011894226,
        11.548453330993652
      ],
      "type": "VEC3"
    },
    {
      "bufferView": 2,
      "byteOffset": 112308,
      "componentType": 5126,
      "count": 2511,
      "max": [
        0.9998860955238342,
        1.0,
        0.9997506141662598
      ],
      "min": [
        -1.0,
        -1.0,
        -1.0
      ],
      "type": "VEC3"
    },
    {
      "bufferView": 3,
      "byteOffset": 54784,
      "componentType": 5126,
      "count": 2511,
      "max": [
        1.0,
        1.0,
        0.9509378671646118,
        1.0
      ],
      "min": [
        -0.9809344410896301,
        -0.9994969964027405,
        -0.9994330406188965,
        1.0
      ],
      "type": "VEC4"
    },
    {
      "bufferView": 1,
      "byteOffset": 27392,
      "componentType": 5126,
      "count": 2511,
      "max": [
        1.0,
        0.9933500289916992
      ],
      "min": [
        0.0,
        0.0
      ],
      "type": "VEC2"
    },
    {
      "bufferView": 0,
      "byteOffset": 63408,
      "componentType": 5125,
      "count": 11508,
      "type": "SCALAR"
    },
    {
      "bufferView": 2,
      "byteOffset": 142440,
      "componentType": 5126,
      "count": 3118,
      "max": [
        2.7183210849761963,
        1.016178011894226,
        10.67784309387207
      ],
      "min": [
        -2.7183210849761963,
        -1.016178011894226,
        7.386833190917969
      ],
      "type": "VEC3"
    },
    {
      "bufferView": 2,
      "byteOffset": 179856,
      "componentType": 5126,
      "count": 3118,
      "max": [
        0.9994263648986816,
        1.0,
        1.0
      ],
      "min": [
        -0.9994263648986816,
        -1.0,
        -1.0
      ],
      "type": "VEC3"
    },
    {
      "bufferView": 3,
      "byteOffset": 94960,
      "componentType": 5126,
      "count": 3118,
      "max": [
        0.996289849281311,
        1.0,
        1.0,
        1.0
      ],
      "min": [
        -0.9532101154327393,
        -1.0,
        -1.0,
        -1.0
      ],
      "type": "VEC4"
    },
    {
      "bufferView": 1,
      "byteOffset": 47480,
      "componentType": 5126,
      "count": 3118,
      "max": [
        0.9948959946632385,
        1.0
      ],
      "min": [
        0.0,
        0.0
      ],
      "type": "VEC2"
    },
    {
      "bufferView": 0,
      "byteOffset": 109440,
      "componentType": 5125,
      "count": 14736,
      "type": "SCALAR"
    },
    {
      "bufferView": 2,
      "byteOffset": 217272,
      "componentType": 5126,
      "count": 929,
      "max": [
        9.952982902526855,
        0.508089005947113,
        15.599594116210938
      ],
      "min": [
        4.397121906280518,
        -0.508089005947113,
        11.831657409667969
      ],
      "type": "VEC3"
    },
    {
      "bufferView": 2,
      "byteOffset": 228420,
      "componentType": 5126,
      "count": 929,
      "max": [
        0.9910587668418884,
        1.0,
        0.9994499087333679
      ],
      "min": [
        -0.9995248913764954,
        -1.0,
        -1.0
      ],
      "type": "VEC3"
    },
    {
      "bufferView": 3,
      "byteOffset": 144848,
      "componentType": 5126,
      "count": 929,
      "max": [
        0.999980628490448,
        1.0,
        0.9998627305030823,
        1.0
      ],
      "min": [
        -0.9076675176620483,
        -1.0,
        -0.9999707341194153,
        1.0
      ],
      "type": "VEC4"
    },
    {
      "bufferView": 1,
      "byteOffset": 72424,
      "componentType": 5126,
      "count": 929,
      "max": [
        0.9530119895935059,
        1.0
      ],
      "min": [
        0.0,
        0.0
      ],
      "type": "VEC2"
    },
    {
      "bufferView": 0,
      "byteOffset": 168384,
      "componentType": 5125,
      "count": 4416,
      "type": "SCALAR"
    },
    {
      "bufferView": 2,
      "byteOffset": 239568,
      "componentType": 5126,
      "count": 2495,
      "max": [
        0.4092639982700348,
        1.016178011894226,
        3.99783992767334
      ],
      "min": [
        -2.6786999702453613,
        -1.016178011894226,
        -2.179060935974121
      ],
      "type": "VEC3"
    },
    {
      "bufferView": 2,
      "byteOffset": 269508,
      "componentType": 5126,
      "count": 2495,
      "max": [
        1.0,
        1.0,
        0.9996667504310608
      ],
      "min": [
        -0.9998860955238342,
        -1.0,
        -1.0
      ],
      "type": "VEC3"
    },
    {
      "bufferView": 3,
      "byteOffset": 159712,
      "componentType": 5126,
      "count": 2495,
      "max": [
        1.0,
        1.0,
        0.9994330406188965,
        1.0
      ],
      "min": [
        -0.9618136286735535,
        -1.0,
        -0.9954449534416199,
        1.0
      ],
      "type": "VEC4"
    },
    {
      "bufferView": 1,
      "byteOffset": 79856,
      "componentType": 5126,
      "count": 2495,
      "max": [
        1.0,
        0.9910399913787842
      ],
      "min": [
        0.0,
        0.0
      ],
      "type": "VEC2"
    },
    {
      "bufferView": 0,
      "byteOffset": 186048,
      "componentType": 5125,
      "count": 11436,
      "type": "SCALAR"
    },
    {
      "bufferView": 2,
      "byteOffset": 299448,
      "componentType": 5126,
      "count": 2511,
      "max": [
        2.6786999702453613,
        1.016178011894226,
        3.99783992767334
      ],
      "min": [
        -0.3702250123023987,
        -1.016178011894226,
        -2.179060935974121
      ],
      "type": "VEC3"
    },
    {
      "bufferView": 2,
      "byteOffset": 329580,
      "componentType": 5126,
      "count": 2511,
      "max": [
        0.9998860955238342,
        1.0,
        0.9997507333755493
      ],
      "min": [
        -1.0,
        -1.0,
        -1.0
      ],
      "type": "VEC3"
    },
    {
      "bufferView": 3,
      "byteOffset": 199632,
      "componentType": 5126,
      "count": 2511,
      "max": [
        1.0,
        1.0,
        0.9509375095367432,
        1.0
      ],
      "min": [
        -0.9809351563453674,
        -0.9994970560073853,
        -0.9994330406188965,
        1.0
      ],
      "type": "VEC4"
    },
    {
      "bufferView": 1,
      "byteOffset": 99816,
      "componentType": 5126,
      "count": 2511,
      "max": [
        1.0,
        0.9933500289916992
      ],
      "min": [
        0.0,
        0.0
      ],
      "type": "VEC2"
    },
    {
      "bufferView": 0,
      "byteOffset": 231792,
      "componentType": 5125,
      "count": 11508,
      "type": "SCALAR"
    },
    {
      "bufferView": 2,
      "byteOffset": 359712,
      "componentType": 5126,
      "count": 3118,
      "max": [
        2.7183210849761963,
        1.016178011894226,
        -1.0726890563964844
      ],
      "min": [
        -2.7183210849761963,
        -1.016178011894226,
        -4.363698959350586
      ],
      "type": "VEC3"
    },
    {
      "bufferView": 2,
      "byteOffset": 397128,
      "componentType": 5126,
      "count": 3118,
      "max": [
        0.9994263648986816,
        1.0,
        1.0
      ],
      "min": [
        -0.9994263648986816,
        -1.0,
        -1.0
      ],
      "type": "VEC3"
    },
    {
      "bufferView": 3,
      "byteOffset": 239808,
      "componentType": 5126,
      "count": 3118,
      "max": [
        0.996289849281311,
        1.0,
        1.0,
        1.0
      ],
      "min": [
        -0.9532110691070557,
        -1.0,
        -1.0,
        -1.0
      ],
      "type": "VEC4"
    },
    {
      "bufferView": 1,
      "byteOffset": 119904,
      "componentType": 5126,
      "count": 3118,
      "max": [
        0.9948959946632385,
        1.0
      ],
      "min": [
        0.0,
        0.0
      ],
      "type": "VEC2"
    },
    {
      "bufferView": 0,
      "byteOffset": 277824,
      "componentType": 5125,
      "count": 14736,
      "type": "SCALAR"
    },
    {
      "bufferView": 2,
      "byteOffset": 434544,
      "componentType": 5126,
      "count": 929,
      "max": [
        7.166904926300049,
        0.508089005947113,
        1.8720790147781372
      ],
      "min": [
        1.611045002937317,
        -0.508089005947113,
        -1.8958590030670166
      ],
      "type": "VEC3"
    },
    {
      "bufferView": 2,
      "byteOffset": 445692,
      "componentType": 5126,
      "count": 929,
      "max": [
        0.9910585284233093,
        1.0,
        0.9994499087333679
      ],
      "min": [
        -0.9995248913764954,
        -1.0,
        -1.0
      ],
      "type": "VEC3"
    },
    {
      "bufferView": 3,
      "byteOffset": 289696,
      "componentType": 5126,
      "count": 929,
      "max": [
        0.9999805688858032,
        1.0,
        0.9998626708984375,
        1.0
      ],
      "min": [
        -0.9076679944992065,
        -1.0,
        -0.9999707341194153,
        1.0
      ],
      "type": "VEC4"
    },
    {
      "bufferView": 1,
      "byteOffset": 144848,
      "componentType": 5126,
      "count": 929,
      "max": [
        0.9530119895935059,
        1.0
      ],
      "min": [
        0.0,
        0.0
      ],
      "type": "VEC2"
    },
    {
      "bufferView": 0,
      "byteOffset": 336768,
      "componentType": 5125,
      "count": 4416,
      "type": "SCALAR"
    },
    {
      "bufferView": 2,
      "byteOffset": 456840,
      "componentType": 5126,
      "count": 929,
      "max": [
        -1.6120330095291138,
        0.508089005947113,
        1.8720790147781372
      ],
      "min": [
        -7.166905879974365,
        -0.508089005947113,
        -1.8958590030670166
      ],
      "type": "VEC3"
    },
    {
      "bufferView": 2,
      "byteOffset": 467988,
      "componentType": 5126,
      "count": 929,
      "max": [
        0.9995250105857849,
        1.0,
        0.9994499087333679
      ],
      "min": [
        -0.9910585284233093,
        -1.0,
        -1.0
      ],
      "type": "VEC3"
    },
    {
      "bufferView": 3,
      "byteOffset": 304560,
      "componentType": 5126,
      "count": 929,
      "max": [
        0.9999783635139465,
        1.0,
        0.9998999834060669,
        1.0
      ],
      "min": [
        -0.959437906742096,
        -1.0,
        -0.9999706745147705,
        1.0
      ],
      "type": "VEC4"
    },
    {
      "bufferView": 1,
      "byteOffset": 152280,
      "componentType": 5126,
      "count": 929,
      "max": [
        0.9933859705924988,
        1.0
      ],
      "min": [
        0.0,
        0.0
      ],
      "type": "VEC2"
    },
    {
      "bufferView": 0,
      "byteOffset": 354432,
      "componentType": 5125,
      "count": 4416,
      "type": "SCALAR"
    }
  ],
  "asset": {
    "extras": {
      "author": "Andres Piroso (https://sketchfab.com/andrespiroso)",
      "license": "CC-BY-4.0 (http://creativecommons.org/licenses/by/4.0/)",
      "source": "https://sketchfab.com/3d-models/egyptian-beetle-puzzle-694fce8c882b4bf1bb1b06b19fc6f132",
      "title": "Egyptian Beetle Puzzle"
    },
    "generator": "Sketchfab-12.68.0",
    "version": "2.0"
  },
  "bufferViews": [
    {
      "buffer": 0,
      "byteLength": 372096,
      "name": "floatBufferViews",
      "target": 34963
    },
    {
      "buffer": 0,
      "byteLength": 159712,
      "byteOffset": 372096,
      "byteStride": 8,
      "name": "floatBufferViews",
      "target": 34962
    },
    {
      "buffer": 0,
      "byteLength": 479136,
      "byteOffset": 531808,
      "byteStride": 12,
      "name": "floatBufferViews",
      "target": 34962
    },
    {
      "buffer": 0,
      "byteLength": 319424,
      "byteOffset": 1010944,
      "byteStride": 16,
      "name": "floatBufferViews",
      "target": 34962
    }
  ],
  "buffers": [
    {
      "byteLength": 1330368,
      "uri": "scene.bin"
    }
  ],
  "images": [
    {
      "uri": "textures/lambert3_baseColor.jpeg"
    },
    {
      "uri": "textures/lambert3_metallicRoughness.png"
    },
    {
      "uri": "textures/lambert3_normal.png"
    },
    {
      "uri": "textures/lambert5_baseColor.jpeg"
    },
    {
      "uri": "textures/lambert5_metallicRoughness.png"
    },
    {
      "uri": "textures/lambert5_normal.png"
    },
    {
      "uri": "textures/lambert6_baseColor.jpeg"
    },
    {
      "uri": "textures/lambert6_metallicRoughness.png"
    },
    {
      "uri": "textures/lambert6_normal.png"
    },
    {
      "uri": "textures/lambert4_baseColor.jpeg"
    },
    {
      "uri": "textures/lambert4_metallicRoughness.png"
    },
    {
      "uri": "textures/lambert4_normal.png"
    },
    {
      "uri": "textures/lambert2_baseColor.jpeg"
    },
    {
      "uri": "textures/lambert2_metallicRoughness.png"
    },
    {
      "uri": "textures/lambert2_normal.png"
    }
  ],
  "materials": [
    {
      "doubleSided": true,
      "name": "lambert3",
      "normalTexture": {
        "index": 2
      },
      "occlusionTexture": {
        "index": 1
      },
      "pbrMetallicRoughness": {
        "baseColorTexture": {
          "index": 0
        },
        "metallicRoughnessTexture": {
          "index": 1
        }
      }
    },
    {
      "doubleSided": true,
      "name": "lambert5",
      "normalTexture": {
        "index": 5
      },
      "occlusionTexture": {
        "index": 4
      },
      "pbrMetallicRoughness": {
        "baseColorTexture": {
          "index": 3
        },
        "metallicRoughnessTexture": {
          "index": 4
        }
      }
    },
    {
      "doubleSided": true,
      "name": "lambert6",
      "normalTexture": {
        "index": 8
      },
      "occlusionTexture": {
        "index": 7
      },
      "pbrMetallicRoughness": {
        "baseColorTexture": {
          "index": 6
        },
        "metallicRoughnessTexture": {
          "index": 7
        }
      }
    },
    {
      "doubleSided": true,
      "name": "lambert4",
      "normalTexture": {
        "index": 11
      },
      "occlusionTexture": {
        "index": 10
      },
      "pbrMetallicRoughness": {
        "baseColorTexture": {
          "index": 9
        },
        "metallicRoughnessTexture": {
          "index": 10
        }
      }
    },
    {
      "doubleSided": true,
      "name": "lambert2",
      "normalTexture": {
        "index": 14
      },
      "occlusionTexture": {
        "index": 13
      },
      "pbrMetallicRoughness": {
        "baseColorTexture": {
          "index": 12
        },
        "metallicRoughnessTexture": {
          "index": 13
        }
      }
    }
  ],
  "meshes": [
    {
      "name": "defaultMaterial",
      "primitives": [
        {
          "attributes": {
            "NORMAL": 1,
            "POSITION": 0,
            "TANGENT": 2,
            "TEXCOORD_0": 3
          },
          "indices": 4,
          "material": 4,
          "mode": 4
        }
      ]
    },
    {
      "name": "defaultMaterial",
      "primitives": [
        {
          "attributes": {
            "NORMAL": 6,
            "POSITION": 5,
            "TANGENT": 7,
            "TEXCOORD_0": 8
          },
          "indices": 9,
          "material": 0,
          "mode": 4
        }
      ]
    },
    {
      "name": "defaultMaterial",
      "primitives": [
        {
          "attributes": {
            "NORMAL": 11,
            "POSITION": 10,
            "TANGENT": 12,
            "TEXCOORD_0": 13
          },
          "indices": 14,
          "material": 3,
          "mode": 4
        }
      ]
    },
    {
      "name": "defaultMaterial",
      "primitives": [
        {
          "attributes": {
            "NORMAL": 16,
            "POSITION": 15,
            "TANGENT": 17,
            "TEXCOORD_0": 18
          },
          "indices": 19,
          "material": 2,
          "mode": 4
        }
      ]
    },
    {
      "name": "defaultMaterial",
      "primitives": [
        {
          "attributes": {
            "NORMAL": 21,
            "POSITION": 20,
            "TANGENT": 22,
            "TEXCOORD_0": 23
          },
          "indices": 24,
          "material": 1,
          "mode": 4
        }
      ]
    },
    {
      "name": "defaultMaterial",
      "primitives": [
        {
          "attributes": {
            "NORMAL": 26,
            "POSITION": 25,
            "TANGENT": 27,
            "TEXCOORD_0": 28
          },
          "indices": 29,
          "material": 4,
          "mode": 4
        }
      ]
    },
    {
      "name": "defaultMaterial",
      "primitives": [
        {
          "attributes": {
            "NORMAL": 31,
            "POSITION": 30,
            "TANGENT": 32,
            "TEXCOORD_0": 33
          },
          "indices": 34,
          "material": 3,
          "mode": 4
        }
      ]
    },
    {
      "name": "defaultMaterial",
      "primitives": [
        {
          "attributes": {
            "NORMAL": 36,
            "POSITION": 35,
            "TANGENT": 37,
            "TEXCOORD_0": 38
          },
          "indices": 39,
          "material": 2,
          "mode": 4
        }
      ]
    },
    {
      "name": "defaultMaterial",
      "primitives": [
        {
          "attributes": {
            "NORMAL": 41,
            "POSITION": 40,
            "TANGENT": 42,
            "TEXCOORD_0": 43
          },
          "indices": 44,
          "material": 1,
          "mode": 4
        }
      ]
    },
    {
      "name": "defaultMaterial",
      "primitives": [
        {
          "attributes": {
            "NORMAL": 46,
            "POSITION": 45,
            "TANGENT": 47,
            "TEXCOORD_0": 48
          },
          "indices": 49,
          "material": 0,
          "mode": 4
        }
      ]
    }
  ],
  "nodes": [
    {
      "children": [
        1
      ],
      "matrix": [
        1.0,
        0.0,
        0.0,
        0.0,
        0.0,
        2.220446049250313e-16,
        -1.0,
        0.0,
        0.0,
        1.0,
        2.220446049250313e-16,
        0.0,
        0.0,
        0.0,
        0.0,
        1.0
      ],
      "name": "Sketchfab_model"
    },
    {
      "children": [
        2,
        4,
        6,
        8,
        10,
        12,
        14,
        16,
        18,
        20
      ],
      "matrix": [
        1.0,
        0.0,
        0.0,
        0.0,
        0.0,
        -4.371139006309477e-08,
        0.999999999999999,
        0.0,
        0.0,
        -0.999999999999999,
        -4.371139006309477e-08,
        0.0,
        0.0,
        0.0,
        0.0,
        1.0
      ],
      "name": "Collada visual scene group"
    },
    {
      "children": [
        3
      ],
      "name": "polySurface30"
    },
    {
      "mesh": 0,
      "name": "defaultMaterial"
    },
    {
      "children": [
        5
      ],
      "name": "polySurface29"
    },
    {
      "mesh": 1,
      "name": "defaultMaterial"
    },
    {
      "children": [
        7
      ],
      "name": "polySurface28"
    },
    {
      "mesh": 2,
      "name": "defaultMaterial"
    },
    {
      "children": [
        9
      ],
      "name": "polySurface27"
    },
    {
      "mesh": 3,
      "name": "defaultMaterial"
    },
    {
      "children": [
        11
      ],
      "name": "polySurface26"
    },
    {
      "mesh": 4,
      "name": "defaultMaterial"
    },
    {
      "children": [
        13
      ],
      "name": "polySurface24"
    },
    {
      "mesh": 5,
      "name": "defaultMaterial"
    },
    {
      "children": [
        15
      ],
      "name": "polySurface25"
    },
    {
      "mesh": 6,
      "name": "defaultMaterial"
    },
    {
      "children": [
        17
      ],
      "name": "polySurface19"
    },
    {
      "mesh": 7,
      "name": "defaultMaterial"
    },
    {
      "children": [
        19
      ],
      "name": "polySurface17"
    },
    {
      "mesh": 8,
      "name": "defaultMaterial"
    },
    {
      "children": [
        21
      ],
      "name": "polySurface18"
    },
    {
      "mesh": 9,
      "name": "defaultMaterial"
    }
  ],
  "samplers": [
    {
      "magFilter": 9729,
      "minFilter": 9987,
      "wrapS": 10497,
      "wrapT": 10497
    }
  ],
  "scene": 0,
  "scenes": [
    {
      "name": "Sketchfab_Scene",
      "nodes": [
        0
      ]
    }
  ],
  "textures": [
    {
      "sampler": 0,
      "source": 0
    },
    {
      "sampler": 0,
      "source": 1
    },
    {
      "sampler": 0,
      "source": 2
    },
    {
      "sampler": 0,
      "source": 3
    },
    {
      "sampler": 0,
      "source": 4
    },
    {
      "sampler": 0,
      "source": 5
    },
    {
      "sampler": 0,
      "source": 6
    },
    {
      "sampler": 0,
      "source": 7
    },
    {
      "sampler": 0,
      "source": 8
    },
    {
      "sampler": 0,
      "source": 9
    },
    {
      "sampler": 0,
      "source": 10
    },
    {
      "sampler": 0,
      "source": 11
    },
    {
      "sampler": 0,
      "source": 12
    },
    {
      "sampler": 0,
      "source": 13
    },
    {
      "sampler": 0,
      "source": 14
    }
  ]
}
